<!DOCTYPE svg PUBLIC "-//W3C//DTD SVG 1.1//EN" "http://www.w3.org/Graphics/SVG/1.1/DTD/svg11.dtd">

<!-- Uploaded to: SVG Repo, www.svgrepo.com, Transformed by: SVG Repo Mixer Tools -->
<svg fill="#000000" preserveAspectRatio='none' width="256px" height="128px" viewBox="0 0 24 24" xmlns="http://www.w3.org/2000/svg">

<g id="SVGRepo_bgCarrier" stroke-width="0"/>

<g id="SVGRepo_tracerCarrier" stroke-linecap="round" stroke-linejoin="round"/>

<g id="SVGRepo_iconCarrier">

<path d="M2,7V5A3,3,0,0,1,5,2H7A1,1,0,0,1,7,4H5A1,1,0,0,0,4,5V7A1,1,0,0,1,2,7ZM2,19a3,3,0,0,0,3,3H7a1,1,0,0,0,0-2H5a1,1,0,0,1-1-1V17a1,1,0,0,0-2,0Zm20-2a1,1,0,0,0-2,0v2a1,1,0,0,1-1,1H17a1,1,0,0,0,0,2h2a3,3,0,0,0,3-3ZM22,5a3,3,0,0,0-3-3H17a1,1,0,0,0,0,2h2a1,1,0,0,1,1,1V7a1,1,0,0,0,2,0Z"/>

</g>

</svg>
